<?xml version="1.0" encoding="UTF-8"?>
<svg id="Layer_1" data-name="Layer 1" xmlns="http://www.w3.org/2000/svg" width="144" height="48">
  <defs>
    <style>
      .cls-1 {
        fill: #696;
        stroke-width: 0px;
      }

      .cls-2 {
        fill: none;
      }

      .cls-2, .cls-3 {
        stroke: #000;
        stroke-miterlimit: 10;
      }

      .cls-3 {
        fill: #06ff23;
      }
    </style>
  </defs>
  <path class="cls-3" d="m22.26,7.77l-3.78,8.2c-.29.63-.91,1.06-1.6,1.11l-8.4.6c-1.68.12-2.4,2.2-1.15,3.33l6.87,6.25c.51.46.73,1.15.58,1.82l-1.86,8.68c-.35,1.63,1.4,2.9,2.84,2.06l7.28-4.25c.6-.35,1.33-.35,1.93,0l7.28,4.25c1.44.84,3.19-.43,2.84-2.06l-1.86-8.68c-.14-.67.08-1.36.58-1.82l6.87-6.25c1.25-1.13.53-3.21-1.15-3.33l-8.4-.6c-.7-.05-1.31-.47-1.6-1.11l-3.78-8.2c-.69-1.48-2.8-1.48-3.48,0Z"/>
  <path class="cls-2" d="m70.26,7.77l-3.78,8.2c-.29.63-.91,1.06-1.6,1.11l-8.4.6c-1.68.12-2.4,2.2-1.15,3.33l6.87,6.25c.51.46.73,1.15.58,1.82l-1.86,8.68c-.35,1.63,1.4,2.9,2.84,2.06l7.28-4.25c.6-.35,1.33-.35,1.93,0l7.28,4.25c1.44.84,3.19-.43,2.84-2.06l-1.86-8.68c-.14-.67.08-1.36.58-1.82l6.87-6.25c1.25-1.13.53-3.21-1.15-3.33l-8.4-.6c-.7-.05-1.31-.47-1.6-1.11l-3.78-8.2c-.69-1.48-2.8-1.48-3.48,0Z"/>
  <path class="cls-1" d="m118.26,7.77l-3.78,8.2c-.29.63-.91,1.06-1.6,1.11l-8.4.6c-1.68.12-2.4,2.2-1.15,3.33l6.87,6.25c.51.46.73,1.15.58,1.82l-1.86,8.68c-.35,1.63,1.4,2.9,2.84,2.06l7.28-4.25c.6-.35,1.33-.35,1.93,0l7.28,4.25c1.44.84,3.19-.43,2.84-2.06l-1.86-8.68c-.14-.67.08-1.36.58-1.82l6.87-6.25c1.25-1.13.53-3.21-1.15-3.33l-8.4-.6c-.7-.05-1.31-.47-1.6-1.11l-3.78-8.2c-.69-1.48-2.8-1.48-3.48,0Z"/>
</svg>