<?xml version="1.0" encoding="UTF-8"?>
<svg id="Layer_2" data-name="Layer 2" xmlns="http://www.w3.org/2000/svg" viewBox="0 0 1056 860">
  <defs>
    <style>
      .cls-1 {
        fill: #9dcb3b;
        stroke: #1b0c0c;
        stroke-miterlimit: 10;
      }
    </style>
  </defs>
  <path class="cls-1" d="m550.72,253.81l33.01,101.58c3.2,9.84,12.37,16.51,22.72,16.51h106.81c23.15,0,32.77,29.62,14.04,43.22l-86.41,62.78c-8.37,6.08-11.88,16.87-8.68,26.71l33.01,101.58c7.15,22.01-18.04,40.32-36.77,26.71l-86.41-62.78c-8.37-6.08-19.71-6.08-28.09,0l-86.41,62.78c-18.73,13.6-43.92-4.7-36.77-26.71l33.01-101.58c3.2-9.84-.31-20.63-8.68-26.71l-86.41-62.78c-18.73-13.6-9.1-43.22,14.04-43.22h106.81c10.35,0,19.52-6.67,22.72-16.51l33.01-101.58c7.15-22.01,38.29-22.01,45.45,0Z"/>
</svg>