<?xml version="1.0" encoding="UTF-8"?>
<svg id="Layer_1" data-name="Layer 1" xmlns="http://www.w3.org/2000/svg" viewBox="0 0 612 792">
  <defs>
    <style>
      .cls-1 {
        fill: #0072bc;
      }

      .cls-1, .cls-2, .cls-3, .cls-4 {
        stroke-width: 0px;
      }

      .cls-2, .cls-4 {
        fill: #fff;
      }

      .cls-3 {
        fill: #f37021;
      }

      .cls-4 {
        fill-rule: evenodd;
      }
    </style>
  </defs>
  <rect class="cls-1" x="104.39" y="348.95" width="403.21" height="100.7"/>
  <g>
    <polygon class="cls-3" points="204.39 405.41 192.06 383.86 197.49 374.1 183.99 374.1 171.86 395.91 185.35 395.91 197.67 417.47 204.39 405.41"/>
    <polygon class="cls-3" points="168 374.11 155.28 395.91 143.98 395.95 150.73 407.64 175.86 407.61 169.04 395.77 181.68 374.1 168 374.11"/>
    <polygon class="cls-3" points="159.28 421.87 184.1 421.89 189.83 431.47 196.58 419.78 183.75 398.36 177.01 410.04 152.21 410.03 159.28 421.87"/>
  </g>
  <g>
    <path class="cls-2" d="m217.47,399.86l5.42-20.65h9.01c1.84,0,3.25.21,4.25.63,1,.42,1.7,1.06,2.1,1.93.4.87.48,1.78.23,2.72-.23.88-.73,1.71-1.49,2.5-.76.77-1.76,1.4-3.01,1.88,1.36.36,2.31.99,2.85,1.87.55.89.67,1.93.35,3.13-.25.97-.73,1.86-1.43,2.71-.69.82-1.45,1.46-2.27,1.92-.82.45-1.78.79-2.89,1.03-1.12.23-2.44.34-3.96.34h-9.16Zm6.34-11.98h5.19c1.41,0,2.44-.08,3.1-.24.87-.21,1.56-.56,2.1-1.03.54-.49.9-1.09,1.09-1.81.17-.68.14-1.28-.1-1.81-.24-.53-.7-.88-1.36-1.07-.66-.19-1.85-.29-3.58-.29h-4.8l-1.64,6.25Zm-2.51,9.55h5.97c1.03,0,1.76-.04,2.19-.1.76-.12,1.43-.31,1.99-.57.56-.26,1.07-.64,1.51-1.15.45-.5.76-1.09.93-1.74.2-.78.15-1.45-.16-2.02-.31-.56-.84-.98-1.59-1.2-.76-.23-1.9-.35-3.42-.35h-5.56l-1.87,7.12Z"/>
    <path class="cls-2" d="m237.37,399.86l14.62-20.65h3.47l4.4,20.65h-3.62l-1.14-6.25h-10.12l-4.24,6.25h-3.38Zm9.14-8.47h8.18l-1-5.72c-.3-1.74-.5-3.19-.6-4.32-.68,1.34-1.45,2.67-2.36,3.99l-4.22,6.06Z"/>
    <path class="cls-2" d="m262.37,399.86l5.42-20.65h3.26l8.36,16.21,4.25-16.21h3.05l-5.42,20.65h-3.26l-8.36-16.22-4.26,16.22h-3.04Z"/>
    <path class="cls-2" d="m286.51,399.86l5.43-20.65h3.18l-2.68,10.22,14.6-10.22h4.3l-12.27,8.38,7.3,12.27h-4.2l-5.8-10.43-4.79,3.28-1.88,7.15h-3.19Z"/>
    <path class="cls-2" d="m309.01,399.86l5.43-20.65h12.38c2.3,0,4.01.17,5.14.51,1.11.33,1.93.96,2.44,1.87.5.92.58,2.03.23,3.34-.29,1.15-.84,2.13-1.63,2.97-.79.82-1.75,1.51-2.88,2.02-.72.33-1.66.61-2.83.83.82.25,1.39.51,1.73.76.23.17.53.52.9,1.08.37.56.61.99.71,1.29l2.03,5.98h-8.39l-2.32-6.31c-.29-.83-.59-1.35-.92-1.59-.45-.33-1.02-.49-1.69-.49h-.65l-2.2,8.39h-7.47Zm10.71-12.3h3.13c.33,0,1.01-.1,2.03-.28.51-.09.97-.31,1.37-.65.4-.34.66-.74.78-1.19.17-.65.05-1.17-.34-1.52-.4-.36-1.27-.54-2.62-.54h-3.26l-1.09,4.18Z"/>
    <path class="cls-2" d="m350.68,396.47h-8.44l-2.06,3.39h-7.59l14.44-20.65h8.14l3.58,20.65h-7.77l-.3-3.39Zm-.36-4.48l-.69-7.42-4.59,7.42h5.28Z"/>
    <path class="cls-2" d="m366.6,379.21h7.44l-2.05,7.8,9.84-7.8h9.86l-10.78,7.78,5.74,12.87h-9.15l-2.82-8.47-4.73,3.43-1.33,5.04h-7.44l5.42-20.65Z"/>
    <path class="cls-2" d="m392.1,379.21h8.25l3.04,6.94,6.66-6.94h8.19l-12.48,12-2.27,8.65h-7.44l2.27-8.65-6.22-12Z"/>
    <path class="cls-2" d="m427.72,396.47h-8.43l-2.07,3.39h-7.58l14.43-20.65h8.15l3.57,20.65h-7.76l-.31-3.39Zm-.35-4.48l-.71-7.42-4.58,7.42h5.29Z"/>
    <path class="cls-2" d="m439.58,379.21h22.6l-1.33,5.08h-7.58l-4.09,15.58h-7.45l4.09-15.58h-7.58l1.33-5.08Z"/>
    <polygon class="cls-4" points="424.67 410.52 422.9 408.76 424.67 407 426.43 408.76 424.67 410.52"/>
    <path class="cls-4" d="m345.53,425.9l1.77,1.76,1.76-1.76-1.76-1.76-1.77,1.76Zm83.91-13.9l-1.76-1.76-1.77,1.76,1.77,1.76,1.76-1.76Zm-58.03,8.45h-6.01c-1.19-2.73,2.03-3.13,2.03-3.13,1.8-.04,2.76-1.57,2.76-1.57-1.68-1.33-1.49-4.07-1.49-4.07-.52,2.94-4.13,3.43-4.13,3.43-4.49.45-2.69,5.37-2.69,5.37h-5.03v-5.5c-1.02,2.37-3.62,3.36-3.62,3.36l.72.86v1.24h-10.43v-7.26c-.91,1.64-3.42,2.27-3.42,2.27l.54.87v.45c-6.08-1.69-6.33,3.71-6.33,3.71h-2.54c.07,1.04-3.7,2.54-3.7,2.54h47.82c-2.95-.63-4.47-2.58-4.47-2.58Zm-32.81.14s-2.1-1.23.45-2.27c0,0,1.54-.5,2.13,1.14,0,0-.36,1.72-2.58,1.13Zm-7.36-6.23l-1.76-1.75-1.77,1.75,1.77,1.76,1.76-1.76Zm4.49,0l-1.76-1.75-1.76,1.75,1.76,1.76,1.76-1.76Zm87.45-2.37l-1.75-1.76-1.76,1.76,1.76,1.76,1.75-1.76Zm-45.72,4.08s-2.03,1.61-1.8,3.41c0,0,3.19-.05,3.42,2.78,0,0,.17,3.65-5.16,4.11l.06.12s8.05.82,8.22-5.21c0,0-.17-5.84-4.75-5.21Zm62.28,9.81l1.76,1.76,1.76-1.76-1.76-1.76-1.76,1.76Zm4.78-7.53l.72.87v1.26s-7-.02-7-.02v-5.52c-1.01,2.37-3.62,3.36-3.62,3.36l.73.86v1.27h-7.7s0-1.58,0-1.58c0,0,1.5-1.34,2.54-1.17l.06-.56s-1.74-.82-2.72-.7c0,0-.58-1.8-2.67-1.8s-2.67,1.8-2.67,1.8c-.98-.12-2.71.7-2.71.7l.05.56c1.04-.17,2.55,1.17,2.55,1.17v1.62h-8.11s.69-5.1-5.67-5.1h-11.35s.35-1.15,1.68-1.15c0,0,5.5-1.16,3.7-5.16,0,0-1.97-4.05-8.45-2.14,0,0,1.97,2.14,1.97,2.6,0,0,3.07-.52,3.42.7,0,0,.64,1.39-2.78,2.14,0,0-5.38,1.39-3.94,5.62h15.36s2.25,0,2.25,1.16c0,0,.05,1.33-2.38,1.33h-20.32v2.53h60.67s0-8.01,0-8.01c-1.01,2.37-3.61,3.36-3.61,3.36Zm-19.55,1.05c-.72,0-1.3-.58-1.3-1.3s.58-1.29,1.3-1.29,1.29.58,1.29,1.29-.58,1.3-1.29,1.3Zm-74.95,6.48l1.75,1.76,1.76-1.76-1.76-1.76-1.75,1.76Zm81.66,0l1.76,1.76,1.76-1.76-1.76-1.76-1.76,1.76Zm-4.48,0l1.76,1.76,1.76-1.76-1.76-1.76-1.76,1.76Z"/>
  </g>
</svg>