<?xml version="1.0" encoding="UTF-8"?>
<svg id="DESIGNED_BY_FREEPIK" data-name="DESIGNED BY FREEPIK" xmlns="http://www.w3.org/2000/svg" viewBox="0 0 144 48">
  <defs>
    <style>
      .cls-1, .cls-2 {
        stroke-width: 0px;
      }

      .cls-2, .cls-3 {
        fill: #fff;
      }

      .cls-4 {
        fill: #ffd92d;
      }

      .cls-4, .cls-3 {
        stroke: #000;
        stroke-miterlimit: 10;
      }
    </style>
  </defs>
  <g>
    <rect class="cls-1" x="21.79" y="35.78" width="5.96" height="1.76" rx=".88" ry=".88" transform="translate(-17.04 51.16) rotate(-75.08)"/>
    <rect class="cls-1" x="24.99" y="30.72" width="2.27" height="1.76" rx=".88" ry=".88" transform="translate(-11.14 48.71) rotate(-75.08)"/>
  </g>
  <path class="cls-3" d="m35.43,7.47l4.01,8.12c.33.66.95,1.12,1.68,1.22l8.96,1.3c1.83.27,2.56,2.52,1.24,3.81l-6.49,6.32c-.53.51-.77,1.25-.64,1.98l1.53,8.93c.31,1.83-1.6,3.22-3.24,2.36l-8.02-4.21c-.65-.34-1.43-.34-2.08,0l-8.02,4.21c-1.64.86-3.56-.53-3.24-2.36l1.53-8.93c.12-.72-.12-1.46-.64-1.98l-6.49-6.32c-1.33-1.29-.59-3.55,1.24-3.81l8.96-1.3c.73-.11,1.36-.56,1.68-1.22l4.01-8.12c.82-1.66,3.19-1.66,4.01,0Z"/>
  <g>
    <rect class="cls-1" x="21.79" y="34.15" width="5.96" height="1.76" rx=".88" ry=".88" transform="translate(-15.45 49.95) rotate(-75.08)"/>
    <rect class="cls-1" x="24.99" y="29.08" width="2.27" height="1.76" rx=".88" ry=".88" transform="translate(-9.56 47.49) rotate(-75.08)"/>
  </g>
  <g>
    <g>
      <rect class="cls-1" x="88.37" y="35.78" width="5.96" height="1.76" rx=".88" ry=".88" transform="translate(32.4 115.49) rotate(-75.08)"/>
      <rect class="cls-1" x="91.56" y="30.72" width="2.27" height="1.76" rx=".88" ry=".88" transform="translate(38.29 113.04) rotate(-75.08)"/>
    </g>
    <path class="cls-4" d="m102,7.47l4.01,8.12c.33.66.95,1.12,1.68,1.22l8.96,1.3c1.83.27,2.56,2.52,1.24,3.81l-6.49,6.32c-.53.51-.77,1.25-.64,1.98l1.53,8.93c.31,1.83-1.6,3.22-3.24,2.36l-8.02-4.21c-.65-.34-1.43-.34-2.08,0l-8.02,4.21c-1.64.86-3.56-.53-3.24-2.36l1.53-8.93c.12-.72-.12-1.46-.64-1.98l-6.49-6.32c-1.33-1.29-.59-3.55,1.24-3.81l8.96-1.3c.73-.11,1.36-.56,1.68-1.22l4.01-8.12c.82-1.66,3.19-1.66,4.01,0Z"/>
    <g>
      <rect class="cls-2" x="88.37" y="34.15" width="5.96" height="1.76" rx=".88" ry=".88" transform="translate(33.98 114.28) rotate(-75.08)"/>
      <rect class="cls-2" x="91.56" y="29.08" width="2.27" height="1.76" rx=".88" ry=".88" transform="translate(39.88 111.82) rotate(-75.08)"/>
    </g>
  </g>
</svg>